#!OML:ASF H:\BabyWalks\Project 1\Capture day 1\Session 1\baby.ASF
:FULLY-SPECIFIED
:DEGREES
334
root -2.65086 17.0031 -2.36488 -31.2826 73.3561 -29.5906
lowerback 21.6343 2.87894 -4.02397
upperback 7.11479 3.18972 -3.19997
thorax -4.31199 1.76646 -1.95428
lowerneck -0.0984287 2.00997 3.79481
upperneck -10.5221 3.80711 7.14173
head -3.48146 1.6233 1.5687
rclavicle 3.10104e-014 1.27222e-014
rhumerus -50.1399 8.31094 -85.921
rradius 56.4526
rwrist -6.68602
rhand -18.7956 -19.8293
rfingers 7.12502
rthumb 7.5024 -49.6762
lclavicle 3.10104e-014 1.27222e-014
lhumerus -54.3537 -2.55502 67.2886
lradius 44.3293
lwrist -2.16018
lhand 2.79132 7.48582
lfingers 7.12502
lthumb 28.2611 35.3742
rfemur 2.6727 11.4314 25.5944
rtibia 47.0399
rfoot -6.71809 19.837
rtoes -11.336
lfemur -29.9223 5.03548 -5.35765
ltibia 39.8885
lfoot -10.3382 -13.2538
ltoes -4.51821
335
root -2.55099 17.0073 -2.37462 -31.5717 73.4525 -30.0377
lowerback 22.0412 2.73875 -4.16864
upperback 7.20166 2.95986 -3.36129
thorax -4.4208 1.66068 -2.00844
lowerneck -0.0847601 2.0745 3.6626
upperneck -10.6246 3.92102 7.30393
head -3.53095 1.6774 1.64332
rclavicle -2.70347e-014 -3.18055e-015
rhumerus -50.2541 8.42289 -86.3017
rradius 56.2182
rwrist -5.93522
rhand -18.9299 -20.1163
rfingers 7.12502
rthumb 7.37282 -49.9679
lclavicle -2.70347e-014 -3.18055e-015
lhumerus -53.0305 -2.46524 66.8683
lradius 44.4821
lwrist -2.81131
lhand 2.13712 7.56867
lfingers 7.12502
lthumb 27.6357 35.5589
rfemur 1.0117 11.1928 25.2519
rtibia 49.446
rfoot -6.26831 19.3891
rtoes -12.3786
lfemur -30.0376 5.13053 -5.47161
ltibia 40.4178
lfoot -10.8231 -13.4592
ltoes -4.07363
336
root -2.45582 17.0172 -2.3841 -31.5604 73.6073 -30.2542
lowerback 22.422 2.6054 -4.40514
upperback 7.25619 2.71593 -3.52031
thorax -4.5544 1.54718 -2.00287
lowerneck -0.0523949 2.15364 3.53929
upperneck -10.7271 4.04694 7.3904
head -3.58205 1.73856 1.69055
rclavicle -8.74653e-015 2.54444e-014
rhumerus -50.4251 8.63003 -86.6805
rradius 56.0314
rwrist -5.13131
rhand -18.8349 -20.1349
rfingers 7.12502
rthumb 7.46449 -49.9832
lclavicle -8.74653e-015 2.54444e-014
lhumerus -51.829 -2.38115 66.5187
lradius 44.9456
lwrist -3.3566
lhand 1.19765 7.6938
lfingers 7.12502
lthumb 26.737 35.8246
rfemur -0.752816 10.9354 24.8178
rtibia 51.7188
rfoot -6.36072 18.6728
rtoes -13.3386
lfemur -30.1573 5.14406 -5.67242
ltibia 40.7629
lfoot -11.2177 -13.5663
ltoes -3.69212
337
root -2.36535 17.0325 -2.39249 -31.2496 73.8306 -30.2337
lowerback 22.7843 2.47817 -4.74149
upperback 7.28007 2.45389 -3.68114
thorax -4.7139 1.4245 -1.93649
lowerneck -0.0131398 2.24502 3.42711
upperneck -10.8238 4.18297 7.42277
head -3.63092 1.80576 1.7172
rclavicle 1.03368e-014 -7.31528e-014
rhumerus -50.6525 8.90316 -87.0475
rradius 55.8931
rwrist -4.29476
rhand -18.485 -19.8473
rfingers 7.12502
rthumb 7.8022 -49.6834
lclavicle 1.03368e-014 -7.31528e-014
lhumerus -50.7691 -2.32024 66.2427
lradius 45.7352
lwrist -3.74574
lhand -0.0474855 7.88302
lfingers 7.12502
lthumb 25.5449 36.1903
rfemur -2.60246 10.6516 24.2923
rtibia 53.8245
rfoot -6.84974 17.7715
rtoes -14.1209
lfemur -30.2832 5.08883 -5.9687
ltibia 40.9314
lfoot -11.5437 -13.5869
ltoes -3.49323
338
root -2.2793 17.053 -2.39941 -30.6795 74.1134 -29.9971
lowerback 23.1423 2.35587 -5.16293
upperback 7.28337 2.17454 -3.84736
thorax -4.89334 1.29394 -1.82179
lowerneck 0.0136781 2.34708 3.33317
upperneck -10.9111 4.3283 7.41935
head -3.67298 1.87861 1.72822
rclavicle 1.59028e-015 2.38542e-014
rhumerus -50.9233 9.21979 -87.402
rradius 55.7972
rwrist -3.45999
rhand -17.8895 -19.2433
rfingers 7.12502
rthumb 8.37698 -49.0571
lclavicle 1.59028e-015 2.38542e-014
lhumerus -49.8571 -2.29015 66.0301
lradius 46.8543
lwrist -3.95395
lhand -1.59735 8.15601
lfingers 7.12502
lthumb 24.0595 36.6678
rfemur -4.50347 10.3443 23.6927
rtibia 55.7189
rfoot -7.56791 16.8235
rtoes -14.7322
lfemur -30.4032 4.97728 -6.34727
ltibia 40.9436
lfoot -11.7929 -13.5442
ltoes -3.40355
339
root -2.19755 17.078 -2.40426 -30.0105 74.4398 -29.691
lowerback 23.5095 2.22959 -5.62351
upperback 7.27632 1.87625 -4.01119
thorax -5.08637 1.15532 -1.67586
lowerneck 0.0192346 2.45582 3.25311
upperneck -10.9936 4.48029 7.40274
head -3.70887 1.95554 1.7322
rclavicle -2.70347e-014 4.45278e-014
rhumerus -51.2259 9.558 -87.7411
rradius 55.7452
rwrist -2.67632
rhand -17.0569 -18.3709
rfingers 7.12502
rthumb 9.18043 -48.151
lclavicle -2.70347e-014 4.45278e-014
lhumerus -49.0883 -2.28517 65.8654
lradius 48.2832
lwrist -3.97134
lhand -3.43035 8.4998
lfingers 7.12502
lthumb 22.3009 37.2329
rfemur -6.4191 10.0144 23.0764
rtibia 57.3601
rfoot -8.37242 15.9763
rtoes -15.2642
lfemur -30.5147 4.82009 -6.75807
ltibia 40.8277
lfoot -11.9591 -13.4862
ltoes -3.30794
340
root -2.11969 17.1066 -2.4068 -29.4161 74.783 -29.4742
lowerback 23.8986 2.09527 -6.06689
upperback 7.26846 1.56651 -4.1648
thorax -5.28742 1.01265 -1.52393
lowerneck 0.000514829 2.56538 3.18911
upperneck -11.075 4.6336 7.3898
head -3.73966 2.03336 1.7347
rclavicle -3.33958e-014 -6.04305e-014
rhumerus -51.5499 9.8899 -88.063
rradius 55.7351
rwrist -1.97859
rhand -15.9974 -17.3178
rfingers 7.12502
rthumb 10.2026 -47.0504
lclavicle -3.33958e-014 -6.04305e-014
lhumerus -48.45 -2.30312 65.7295
lradius 49.9867
lwrist -3.80181
lhand -5.48929 8.8761
lfingers 7.12502
lthumb 20.3232 37.8327
rfemur -8.31056 9.67385 22.506
rtibia 58.7105
rfoot -9.1821 15.3755
rtoes -15.8056
lfemur -30.6115 4.6336 -7.1418
ltibia 40.615
lfoot -12.0634 -13.4263
ltoes -3.224
341
root -2.04556 17.1379 -2.40675 -29.0284 75.1234 -29.4719
lowerback 24.3111 1.95112 -6.45821
upperback 7.2677 1.25236 -4.29881
thorax -5.48853 0.869139 -1.37687
lowerneck -0.0376221 2.67178 3.13573
upperneck -11.1669 4.78489 7.38609
head -3.7707 2.11 1.73874
rclavicle 3.81667e-014 -3.18055e-015
rhumerus -51.8854 10.2066 -88.3674
rradius 55.7658
rwrist -1.43069
rhand -14.757 -16.1878
rfingers 7.12502
rthumb 11.3991 -45.8579
lclavicle 3.81667e-014 -3.18055e-015
lhumerus -47.9225 -2.32807 65.6087
lradius 51.9182
lwrist -3.45879
lhand -7.69016 9.26441
lfingers 7.12502
lthumb 18.2069 38.4323
rfemur -10.158 9.33679 22.0268
rtibia 59.748
rfoot -9.94605 15.1243
rtoes -16.3757
lfemur -30.697 4.43469 -7.45508
ltibia 40.3371
lfoot -12.1254 -13.3832
ltoes -3.15111
342
root -1.97466 17.171 -2.40404 -28.9545 75.4469 -29.7891
lowerback 24.7461 1.79842 -6.76825
upperback 7.27787 0.943774 -4.40725
thorax -5.68566 0.729215 -1.247
lowerneck -0.0824615 2.76949 3.09823
upperneck -11.2863 4.92913 7.38904
head -3.81005 2.18204 1.74268
rclavicle -3.49861e-014 -2.8625e-014
rhumerus -52.2297 10.4933 -88.6551
rradius 55.8338
rwrist -1.06068
rhand -13.3754 -15.1103
rfingers 7.12502
rthumb 12.7313 -44.7021
lclavicle -3.49861e-014 -2.8625e-014
lhumerus -47.4805 -2.35644 65.4949
lradius 54.0149
lwrist -2.95693
lhand -9.94995 9.59289
lfingers 7.12502
lthumb 16.0318 38.9496
rfemur -11.9436 9.01526 21.6733
rtibia 60.4616
rfoot -10.6132 15.2273
rtoes -16.8549
lfemur -30.778 4.23366 -7.66591
ltibia 40.0217
lfoot -12.159 -13.3731
ltoes -3.06763
